<svg xmlns="http://www.w3.org/2000/svg" version="1.0" width="541.000000pt" height="461.000000pt" viewBox="0 0 541.000000 461.000000" preserveAspectRatio="xMidYMid meet">

<g transform="translate(0.000000,461.000000) scale(0.100000,-0.100000)" fill="#516953" stroke="none">
<path d="M1133 4213 c-126 -219 -268 -463 -315 -543 -47 -80 -137 -235 -200 -345 -64 -110 -176 -303 -250 -430 -235 -403 -338 -582 -338 -589 0 -4 40 -76 89 -159 49 -84 138 -237 199 -342 60 -104 118 -204 128 -222 11 -17 55 -93 99 -170 44 -76 247 -425 450 -775 l370 -638 1345 0 1345 0 130 223 c333 572 764 1315 928 1597 49 85 132 228 184 318 65 110 93 168 88 179 -7 19 -129 232 -329 573 -162 277 -214 368 -241 415 -13 22 -86 148 -162 280 -77 132 -216 371 -308 530 -93 160 -195 336 -229 393 l-60 102 -1346 0 -1346 0 -231 -397z m2798 -293 c75 -129 193 -334 263 -455 71 -121 160 -274 198 -340 169 -288 213 -362 337 -577 72 -125 131 -233 131 -241 0 -14 -28 -64 -208 -374 -38 -65 -176 -302 -307 -528 -265 -457 -421 -724 -502 -862 l-54 -93 -1079 0 -1078 0 -63 108 c-34 59 -155 267 -269 462 -113 195 -307 528 -430 740 -123 212 -244 421 -270 466 l-47 80 110 190 c227 392 763 1313 914 1572 l54 92 1082 -2 1081 -3 137 -235z" fill="#516953"/>
</g>
</svg>