<?xml version="1.0" standalone="no"?>
<!DOCTYPE svg PUBLIC "-//W3C//DTD SVG 20010904//EN"
 "http://www.w3.org/TR/2001/REC-SVG-20010904/DTD/svg10.dtd">
<svg version="1.0" xmlns="http://www.w3.org/2000/svg"
 width="300.000000pt" height="255.000000pt" viewBox="0 0 300.000000 255.000000"
 preserveAspectRatio="xMidYMid meet">
<metadata>
Created by potrace 1.10, written by Peter Selinger 2001-2011
</metadata>
<g transform="translate(0.000000,255.000000) scale(0.100000,-0.100000)"
fill="#000000" stroke="none">
<path d="M391 1923 c-200 -344 -365 -633 -367 -642 -2 -9 161 -299 364 -646
l367 -630 747 -3 746 -2 363 622 c199 343 366 630 372 638 6 11 -85 177 -361
650 l-370 635 -749 2 -748 2 -364 -626z m2008 -130 c162 -278 294 -511 294
-517 0 -6 -132 -240 -294 -518 l-294 -507 -601 -1 -600 0 -297 509 c-163 281
-297 513 -297 517 0 3 133 235 296 515 l297 509 601 0 601 0 294 -507z"/>
</g>
</svg>
